<?xml version="1.0" encoding="UTF-8"?>
<svg width="400" height="300" viewBox="0 0 400 300" fill="none" xmlns="http://www.w3.org/2000/svg">
    <!-- Background -->
    <rect width="400" height="300" fill="#F3F4F6"/>
    
    <!-- Dashboard Header -->
    <rect x="20" y="20" width="360" height="40" fill="#4F46E5" rx="4"/>
    
    <!-- Chart Area 1 -->
    <rect x="20" y="80" width="170" height="100" fill="white" rx="4" stroke="#E5E7EB" stroke-width="2"/>
    <path d="M40 160 L60 140 L80 150 L100 130 L120 145 L140 135" 
          stroke="#4F46E5" stroke-width="2" fill="none"/>
    
    <!-- Chart Area 2 -->
    <rect x="210" y="80" width="170" height="100" fill="white" rx="4" stroke="#E5E7EB" stroke-width="2"/>
    <rect x="230" y="160" width="20" height="20" fill="#4F46E5"/>
    <rect x="260" y="140" width="20" height="40" fill="#4F46E5"/>
    <rect x="290" y="150" width="20" height="30" fill="#4F46E5"/>
    <rect x="320" y="130" width="20" height="50" fill="#4F46E5"/>
    
    <!-- Stats Area -->
    <rect x="20" y="200" width="360" height="80" fill="white" rx="4" stroke="#E5E7EB" stroke-width="2"/>
    <circle cx="60" cy="240" r="20" fill="#818CF8" fill-opacity="0.2"/>
    <circle cx="60" cy="240" r="15" fill="#4F46E5"/>
    <rect x="100" y="230" width="100" height="20" fill="#E5E7EB" rx="2"/>
    <rect x="220" y="230" width="100" height="20" fill="#E5E7EB" rx="2"/>
    <rect x="340" y="230" width="20" height="20" fill="#4F46E5" rx="2"/>
</svg> 